<svg width="390" height="1585" viewBox="0 0 390 1585" fill="none" xmlns="http://www.w3.org/2000/svg">
<path d="M201.07 1400.53C200.076 1398.04 199.065 1395.6 198.141 1393.07C197.632 1391.67 197.475 1390.08 195.734 1389.42C194.943 1389.12 194.374 1388.29 194.535 1387.4C195.861 1380.66 192.741 1374.38 192.84 1367.79C192.838 1365.9 192.712 1364.03 192.995 1362.17C193.431 1359.06 194.124 1356.26 192.416 1352.83C190.58 1349.25 192.204 1344.97 193.947 1341.26C194.715 1339.55 195.429 1337.82 196.243 1335.77C191.076 1334.93 186.578 1333.65 181.577 1335.7C176.364 1337.86 173.48 1335.37 173.403 1329.74C173.365 1326.06 174.581 1322.72 176.103 1319.53C177.095 1317.47 178.124 1315.49 178.525 1313.25C179.623 1307.63 186.343 1305.94 190.761 1310.32C191.562 1311.16 192.171 1312.24 193.442 1312.51C193.587 1312.62 193.714 1312.77 193.913 1312.89C193.909 1312.72 193.852 1312.52 193.848 1312.34C193.773 1311.26 193.627 1310.21 193.66 1309.15C193.758 1306.94 193.072 1306.49 191.06 1307.46C189.189 1308.36 187.676 1307.53 186.571 1305.77C185.042 1303.29 184.434 1300.5 184.431 1297.66C184.4 1294.34 186.996 1293.2 189.627 1292.9C192.382 1292.57 193.067 1294.73 193.416 1297.03C193.809 1299.75 193.685 1302.43 193.154 1305.28C193.598 1305.18 194.045 1305.26 194.165 1305.06C195.625 1303.21 197.535 1301.62 199.828 1302.21C202.336 1302.87 202.978 1305.55 203.31 1307.9C203.554 1309.39 203.478 1310.96 203.474 1312.5C203.428 1316.44 200.646 1317.23 196.909 1317.49C199.935 1320.85 200.776 1324.6 201.196 1329.51C204.396 1324.72 207.584 1321.1 211.062 1317.69C222.3 1306.77 235.374 1299.43 250.853 1296.5C253.054 1296.06 255.299 1296.05 257.524 1295.92C260.834 1295.71 264.212 1296.22 266.823 1293.14C268.302 1291.41 270.686 1292.09 272.515 1292.66C278.684 1294.64 284.874 1296.74 290.722 1299.56C292.611 1300.5 294.575 1301.58 294.451 1304.26C294.338 1305.76 295.505 1306.18 296.551 1306.8C309.139 1314.32 318.015 1325.05 324.053 1338.27C327.952 1336.35 328.366 1336.54 330.623 1340.66C332.307 1343.79 333.585 1347.08 334.651 1350.48C335.491 1353.28 335.843 1355.75 333.5 1357.98C332.678 1358.73 332.696 1359.62 333.178 1360.54C334.252 1362.58 334.174 1364.92 334.805 1367.07C335.98 1371.45 335.504 1375.26 331.498 1378.09C330.128 1379.08 329.929 1380.67 329.477 1382.13C321.703 1406.77 306.269 1424.36 281.622 1433.06C272.67 1436.25 263.469 1436.82 254.034 1435.48C250.639 1435.02 247.177 1434.77 243.749 1434.41C237.911 1433.84 232.625 1431.49 227.075 1430.17C222.3 1425.8 219.154 1419.98 213.601 1415.83C219.75 1415.02 219.75 1415.02 220.644 1412.52C220.889 1414.96 219.904 1417.37 220.559 1419.82C221.045 1421.86 222.354 1423.16 224.358 1423.54C225.985 1423.81 227.89 1423.75 228.691 1421.93C230.36 1418.08 231.652 1414.11 228.6 1410.27C229.318 1407.01 229.983 1403.73 230.173 1399.89C227.011 1403.04 224.165 1405.94 220.625 1408.03C219.934 1406.45 219.6 1404.87 219.833 1403.17C221.307 1402.04 223.07 1401.11 224.272 1399.71C227.477 1396.04 231.492 1392.8 231.29 1387.18C231.056 1379.96 230.752 1372.78 229.345 1365.73C229.085 1364.29 229.036 1362.73 227.757 1361.16C223.134 1373.19 213.053 1379.62 203.608 1386.67C202.765 1387.3 201.182 1387.46 201.769 1389.17C202.487 1391.23 202.625 1393.63 204.368 1395.24C204.603 1395.43 205.47 1395.11 205.963 1394.85C211.535 1391.91 216.925 1388.8 220.777 1383.62C221.68 1382.42 222.551 1380.57 224.341 1381.83C226.039 1383.01 224.841 1384.59 224.083 1385.89C220.793 1391.54 215.242 1394.6 209.889 1397.78C206.067 1400.02 205.922 1399.92 208.521 1403.32C208.942 1403.87 209.158 1404.88 210.297 1404.82C210.569 1404.13 210.877 1403.52 211.132 1402.89C211.441 1403.22 212.02 1403.64 211.953 1403.86C210.989 1407.34 211.521 1410.75 211.929 1414.19C210.617 1413.66 209.219 1413.23 208.216 1412.09C208.826 1410.5 207.765 1409.17 207.575 1407.69C206.949 1404.01 205.426 1400.94 201.07 1400.53ZM295.935 1379.98C288.886 1382.16 281.597 1382.08 274.324 1381.95C272.096 1381.9 269.391 1379.41 267.952 1381.38C266.704 1383.12 267.514 1386.21 267.063 1388.61C266.612 1391.01 267.581 1391.31 269.648 1391.3C280.462 1391.24 291.144 1389.89 301.647 1387.6C310.446 1385.67 318.918 1382.51 326.11 1376.83C331.653 1372.47 332.147 1369.55 328.768 1362.77C324.163 1367.72 318.878 1371.63 312.748 1374.27C310.91 1375.06 308.674 1376.37 307.518 1373.83C306.473 1371.5 309.118 1370.96 310.602 1370.36C318.378 1367.16 324.216 1361.47 329.743 1355.45C330.546 1354.58 330.958 1353.82 330.614 1352.65C329.672 1349.23 328.784 1345.82 326.623 1342.91C323.075 1346.35 319.779 1349.94 316.083 1353.1C304.537 1362.92 290.989 1367.04 276.022 1366.23C267.156 1365.72 267.236 1365.27 267.772 1374.18C267.878 1375.93 268.315 1376.42 270.174 1376.7C278.81 1378.14 287.298 1377.59 295.839 1376.11C296.009 1377.46 296.817 1378.66 295.935 1379.98ZM289.312 1306.56C289.918 1304.8 289.486 1303.72 287.728 1303.12C286.921 1302.87 286.027 1302.71 285.411 1302.22C282.317 1299.84 280.631 1301.09 278.874 1304.09C271.865 1316.2 262.184 1325.72 249.66 1332.05C246.096 1333.83 242.331 1335.32 238.713 1337.09C226.186 1343.24 213.123 1346.74 199.026 1344.85C198.347 1344.75 197.366 1344.68 197.095 1345.37C196.331 1347.26 195.997 1349.28 196.5 1351.27C196.889 1352.86 198.505 1352.6 199.755 1352.75C213.439 1354.46 226.451 1351.12 239.476 1347.55C248.053 1345.19 256.148 1341.92 263.286 1336.22C272.371 1329 279.461 1320.04 286.37 1310.91C287.393 1309.51 288.326 1308.03 289.312 1306.56ZM246.082 1405.07C247.167 1401.39 247.787 1397.68 248.515 1394.01C251.14 1380.06 249.675 1366.55 244.635 1353.35C243.977 1351.66 243.284 1350.86 241.269 1351.65C238.652 1352.67 235.887 1353.4 233.102 1354.02C231.328 1354.41 230.808 1355.13 231.378 1356.91C232.19 1359.23 232.862 1361.62 233.339 1364.07C235.807 1376.06 235.926 1388.21 234.459 1400.33C233.564 1408.15 232.26 1415.95 229.039 1423.28C228.68 1424.06 228.039 1424.98 228.683 1425.95C230.406 1428.37 236.798 1428.12 237.85 1425.49C240.742 1418.65 243.385 1411.85 246.082 1405.07ZM257.287 1413.81C259.949 1405.24 261.522 1397.52 262.433 1389.65C263.964 1377.13 263.536 1364.65 260.509 1352.37C258.767 1345.45 258.643 1345.47 252.563 1347.95C252.351 1348.06 252.102 1348.11 251.891 1348.22C247.416 1349.9 247.487 1349.86 249.358 1354.28C253.567 1364.27 254.847 1374.77 254.171 1385.49C253.321 1399.05 248.51 1411.49 243.645 1423.92C243.019 1425.56 241.125 1427.1 241.799 1428.72C242.548 1430.49 245.033 1429.14 246.566 1430.09C248.679 1431.45 249.884 1430.23 250.987 1428.39C253.902 1423.56 256.006 1418.31 257.287 1413.81ZM199.755 1338.52C198.564 1340.45 199.482 1340.91 201.176 1340.97C202.816 1341 204.476 1341.16 206.15 1341.09C216.48 1340.88 225.95 1337.73 235.439 1333.77C251.432 1327.1 265.368 1318.32 274.433 1303C276.898 1298.87 276.993 1299.13 272.218 1297.41C269.455 1296.43 267.66 1296.7 266.148 1299.48C264.673 1302.33 262.239 1304.47 260.003 1306.73C252.022 1314.76 242.457 1320.3 232.175 1324.72C224.137 1328.19 216.164 1332.21 207.316 1332.59C202.722 1332.76 201.442 1335.55 199.755 1338.52ZM310.737 1351.32C310.659 1351 310.612 1350.39 310.423 1349.86C309.478 1347.21 308.588 1344.57 307.2 1342.01C303.391 1335.1 298.004 1329.47 292.861 1323.61C287.372 1317.36 287.302 1317.4 282.117 1323.64C278.986 1327.45 278.916 1327.49 282.828 1330.66C291.053 1337.41 296.958 1345.74 300.368 1355.84C300.54 1356.42 300.202 1357.32 301.375 1357.15C302.319 1357.15 310.348 1352.38 310.737 1351.32ZM273.325 1430.72C280.475 1429.16 286.471 1426.95 292.036 1423.66C293.127 1422.99 294.124 1422.06 294.815 1420.98C299.685 1413.28 304.196 1405.4 306.44 1396.47C307.811 1391.11 307.609 1390.81 302.375 1391.9C300.174 1392.34 298.016 1392.26 296.992 1395.37C292.488 1408.91 284.429 1420.23 273.325 1430.72ZM293.763 1393.42C290.564 1393.84 288.011 1394.47 285.463 1394.5C282.916 1394.54 282.155 1395.66 281.505 1397.94C277.984 1409.84 270.373 1418.58 259.895 1424.78C257.941 1425.94 256.706 1427.45 255.619 1429.24C254.687 1430.72 255.091 1431.32 256.855 1431.33C260.367 1431.42 264.308 1433.36 266.675 1428.77C267.071 1428.07 268.223 1427.78 269.07 1427.33C271.36 1426.04 273.543 1424.71 275.285 1422.71C282.809 1414.06 289.213 1404.65 293.763 1393.42ZM296.715 1358.48C296.62 1358.22 296.543 1357.9 296.411 1357.56C292.655 1347.06 285.93 1338.71 277.553 1331.5C276.665 1330.75 276.056 1330.62 275.184 1331.53C273.455 1333.3 271.636 1334.98 269.816 1336.66C268.906 1337.5 268.349 1338.15 269.829 1339.08C277.356 1343.9 281.72 1350.93 283.694 1359.57C283.812 1360.14 283.95 1360.84 284.314 1361.19C285.259 1362.13 295.819 1360.03 296.544 1358.84C296.561 1358.79 296.594 1358.68 296.715 1358.48ZM294.304 1310.24C291.567 1309.74 291.415 1311.94 290.368 1313.03C289.113 1314.42 290.072 1315.13 291.162 1316.18C300.391 1325.01 309.321 1334.04 313.917 1346.4C314.143 1347 314.124 1347.82 315.259 1347.59C317.725 1347.05 320.428 1342.34 319.579 1339.95C316.179 1330.39 309.409 1323.32 302.394 1316.48C299.85 1314.03 296.783 1312.13 294.304 1310.24ZM225.455 1355.66C221.53 1356.33 218.503 1357.34 215.331 1357.3C213.156 1357.27 211.82 1358.15 210.915 1360.12C209.621 1363.14 207.484 1365.84 204.568 1367.06C197.73 1369.9 196.936 1374.74 198.862 1381.06C199.51 1383.16 199.726 1384.17 201.865 1382.41C206.196 1378.91 210.857 1375.87 214.915 1372.11C219.692 1367.75 223.04 1362.29 225.455 1355.66ZM268.583 1361.32C271.51 1361.58 274.421 1361.89 277.348 1362.15C279.187 1362.31 279.471 1361.39 279.153 1359.76C278.612 1356.76 277.241 1354.14 275.659 1351.64C273.301 1347.84 270.575 1344.28 266.536 1341.9C264.985 1341 263.692 1341.37 262.268 1342.34C261.214 1343.08 261.282 1343.81 261.817 1344.74C264.363 1349.08 265.583 1353.89 266.288 1358.83C266.602 1360.29 267.258 1361.02 268.583 1361.32ZM260.228 1419.15C260.866 1418.99 261.259 1419.06 261.505 1418.84C268.082 1413.62 273.3 1407.26 276.547 1399.47C278.229 1395.39 278.121 1395.35 273.52 1395.16C271.648 1395.11 269.739 1394.99 267.867 1394.94C266.994 1394.91 266.174 1394.89 266 1396.02C264.857 1403.87 262.638 1411.39 260.228 1419.15ZM324.555 1383.73C320.122 1385.66 316.484 1387.31 312.826 1388.83C311.536 1389.37 311.48 1390.12 311.522 1391.32C311.582 1397.01 309.388 1402.17 307.424 1407.35C306.714 1409.26 305.554 1410.91 305.238 1413.82C314.113 1405 320.335 1395.41 324.555 1383.73ZM207.193 1328.24C213.648 1327.59 218.703 1325.56 223.722 1323.46C226.708 1322.2 225.142 1319.64 224.273 1318.07C223.478 1316.65 222.198 1314.12 219.636 1316.1C215.214 1319.51 211.263 1323.31 207.193 1328.24ZM225.136 1312.26C226.473 1314.03 228.689 1315.25 228.856 1317.37C229.157 1321.72 231.182 1320.52 233.526 1319.24C234.866 1318.53 236.987 1318.54 236.295 1316.02C235.468 1312.99 233.637 1310.53 230.907 1309.44C228.573 1308.6 226.798 1310.71 225.136 1312.26ZM241.195 1305.38C239.712 1304.26 238.782 1304.98 237.771 1305.2C234.861 1305.83 234.472 1306.89 236.952 1308.78C238.472 1309.96 239.627 1311.56 240.056 1313.41C240.563 1315.58 241.611 1315.43 243.035 1314.45C244.616 1313.35 247.16 1313.14 247.255 1310.74C247.308 1308.1 245.166 1307.02 242.994 1306.23C242.204 1305.93 241.518 1305.48 241.195 1305.38ZM197.467 1366.57C200.778 1364.65 203.716 1362.78 205.924 1360.04C206.411 1359.43 207.76 1358.31 205.982 1357.58C200.915 1355.47 197.607 1357.58 197.113 1363.15C197.027 1364.19 196.887 1365.21 197.467 1366.57ZM246.001 1302.44C248.026 1303.89 249.832 1305.11 250.745 1307.1C251.268 1308.27 251.963 1308.31 252.927 1307.48C255.307 1305.33 257.741 1303.19 260.648 1300.67C255.348 1300.26 250.869 1300.82 246.001 1302.44Z" fill="#DCCFA8"/>
<path d="M157.019 1375.45C156.656 1373.38 157.554 1371.06 155.825 1369.23C155.929 1369.08 155.925 1368.9 155.975 1368.74C158.261 1368.98 158.476 1366.39 160.35 1365.67C162.826 1364.73 164.225 1365.16 165.299 1367.21C166.946 1370.26 167.209 1373.59 166.615 1376.83C166.067 1379.73 163.406 1380.33 160.345 1380.5C162.994 1383.74 164.06 1387.14 164.206 1390.85C164.417 1396.06 160.953 1399.23 155.94 1398.09C152.021 1397.23 148.405 1397.28 144.548 1398.68C139.419 1400.58 136.573 1398.16 136.714 1392.77C136.911 1385.68 140.765 1379.73 143.204 1373.4C144.44 1370.18 149.659 1370.09 152.932 1372.46C154.217 1373.45 155.015 1375.06 156.753 1375.54C156.848 1375.81 156.979 1376.14 157.311 1375.83C157.278 1375.94 157.13 1375.66 157.019 1375.45Z" fill="#DCCFA8"/>
<path d="M165.689 1193.96C167.975 1194.2 168.19 1191.61 170.064 1190.89C172.54 1189.95 173.939 1190.38 175.013 1192.43C176.66 1195.48 176.923 1198.81 176.329 1202.05C175.781 1204.95 173.12 1205.54 170.059 1205.71C172.708 1208.96 173.774 1212.36 173.92 1216.07C174.131 1221.27 170.667 1224.45 165.654 1223.31C161.735 1222.44 158.119 1222.5 154.262 1223.9C149.133 1225.79 146.287 1223.37 146.428 1217.98C146.624 1210.9 150.479 1204.95 152.917 1198.62C154.154 1195.4 159.373 1195.31 162.646 1197.68C163.93 1198.67 164.729 1200.28 166.467 1200.76C166.561 1201.02 166.693 1201.36 167.025 1201.05C167.042 1201 166.894 1200.71 166.82 1200.57C166.458 1198.51 167.355 1196.19 165.626 1194.35C165.642 1194.3 165.693 1194.14 165.689 1193.96Z" fill="#FEDCA6"/>
<path d="M131.112 1279.62C130.75 1277.56 131.648 1275.24 129.918 1273.4C130.022 1273.25 130.019 1273.08 130.069 1272.92C132.355 1273.15 132.57 1270.56 134.444 1269.84C136.92 1268.9 138.318 1269.33 139.393 1271.38C141.04 1274.43 141.303 1277.76 140.709 1281.01C140.178 1283.85 137.591 1284.59 134.348 1284.58C137.088 1287.91 138.137 1291.37 138.299 1295.02C138.511 1300.23 135.046 1303.41 130.034 1302.26C126.115 1301.4 122.499 1301.46 118.642 1302.86C113.513 1304.75 110.667 1302.33 110.808 1296.94C111.004 1289.85 114.858 1283.9 117.297 1277.57C118.534 1274.35 123.753 1274.26 127.025 1276.64C128.31 1277.63 129.109 1279.23 130.847 1279.71C130.941 1279.98 131.073 1280.32 131.405 1280.01C131.335 1280.04 131.186 1279.76 131.112 1279.62Z" fill="#DCCFA8"/>
<path d="M113.816 1145.83C116.101 1146.06 116.316 1143.47 118.191 1142.76C120.667 1141.81 122.065 1142.25 123.14 1144.29C124.787 1147.34 125.05 1150.68 124.455 1153.92C123.908 1156.82 121.247 1157.41 118.185 1157.58C120.834 1160.82 121.9 1164.23 122.046 1167.94C122.257 1173.14 118.793 1176.32 113.781 1175.17C109.861 1174.31 106.245 1174.37 102.389 1175.77C97.2593 1177.66 94.4132 1175.24 94.5545 1169.85C94.7509 1162.76 98.605 1156.81 101.044 1150.48C102.28 1147.26 107.499 1147.17 110.772 1149.55C112.057 1150.54 112.855 1152.14 114.593 1152.62C114.688 1152.89 114.819 1153.23 115.152 1152.92C115.168 1152.86 115.02 1152.58 114.946 1152.44C114.584 1150.38 115.482 1148.06 113.752 1146.22C113.769 1146.17 113.765 1145.99 113.816 1145.83Z" fill="#FEDCA6"/>
<path d="M133.262 1368.18C134.55 1368.41 135.263 1369.34 135.749 1370.43C137.077 1373.56 137.108 1376.88 136.729 1380.19C136.495 1381.89 135.402 1383.32 133.553 1383.57C131.722 1383.77 130.437 1382.78 129.655 1381.12C128.227 1378.31 127.881 1375.25 127.766 1372.21C127.607 1368.73 129.927 1367.15 133.262 1368.18Z" fill="#DCCFA8"/>
<path d="M146.33 1205.96C145.908 1207.13 145.08 1208.47 143.356 1208.7C141.508 1208.95 140.206 1208.02 139.371 1206.34C137.922 1203.41 137.609 1200.24 137.42 1197.05C137.29 1195 138.044 1193.52 140.158 1193.17C142.201 1192.86 144.163 1193 145.366 1195.21C146.457 1197.2 147.117 1203.43 146.33 1205.96Z" fill="#FEDCA6"/>
<path d="M90.9589 1145.16C92.0849 1145.34 92.8822 1146 93.3842 1147.04C94.9476 1150.36 95.0192 1153.93 94.5194 1157.43C94.2659 1159.01 93.2055 1160.33 91.5355 1160.58C89.7413 1160.85 88.369 1159.95 87.5335 1158.28C85.9534 1155.01 85.4383 1151.54 85.6154 1147.93C85.7267 1145.49 88.145 1144.35 90.9589 1145.16Z" fill="#FEDCA6"/>
<path d="M173.509 1317.25C172.762 1319.08 171.896 1320.35 170.189 1320.53C168.553 1320.67 167.271 1319.86 166.456 1318.3C164.785 1314.95 164.374 1311.34 164.46 1307.64C164.495 1305.82 165.872 1305.19 167.293 1304.98C169.195 1304.74 171.175 1304.83 172.249 1306.87C173.974 1310.24 173.656 1313.93 173.509 1317.25Z" fill="#DCCFA8"/>
<path d="M110.876 1284.38C110.199 1286.18 109.317 1287.5 107.61 1287.67C105.957 1287.87 104.659 1287.11 103.844 1285.56C102.119 1282.19 101.708 1278.58 101.794 1274.88C101.825 1272.88 103.327 1272.23 104.855 1272.05C106.741 1271.87 108.67 1272.11 109.674 1274.2C111.274 1277.59 111.06 1281.13 110.876 1284.38Z" fill="#DCCFA8"/>
<path d="M177.708 1293.86C180.942 1295.22 181.705 1297.7 181.94 1300.55C182.139 1303.33 181.96 1305.99 179.197 1307.67C178.616 1308.02 177.87 1308.15 177.211 1308.18C174.237 1308.26 172.176 1305.02 171.676 1299.61C171.379 1296.38 172.993 1294.23 175.997 1293.86C176.619 1293.76 177.352 1293.87 177.708 1293.86Z" fill="#DCCFA8"/>
<path d="M145.131 1367.38C144.297 1369.31 143.207 1370.92 140.932 1371.22C138.549 1371.48 137.237 1370.01 136.431 1368.05C135.646 1366.21 135.197 1364.24 134.979 1362.28C134.714 1359.71 135.838 1358 138.226 1357.14C140.863 1356.25 142.861 1357.22 144.154 1359.52C145.575 1361.97 145.38 1364.68 145.131 1367.38Z" fill="#DCCFA8"/>
<path d="M119.171 1271.54C118.337 1273.46 117.3 1275.09 114.972 1275.37C112.589 1275.64 111.26 1274.22 110.455 1272.25C109.669 1270.42 109.203 1268.5 109.003 1266.49C108.734 1263.75 109.982 1262.01 112.585 1261.22C115.296 1260.47 117.156 1261.7 118.325 1264.01C119.619 1266.3 119.457 1268.91 119.171 1271.54Z" fill="#DCCFA8"/>
<path d="M150.642 1182.02C153.732 1183.27 154.686 1185.52 154.938 1188.32C155.21 1191.24 155.16 1194.06 152.363 1195.84C151.711 1196.23 150.824 1196.43 150.004 1196.41C147.171 1196.42 145.087 1192.87 144.714 1187.62C144.455 1184.47 145.988 1182.76 148.952 1182.14C149.553 1181.92 150.286 1182.03 150.642 1182.02Z" fill="#FEDCA6"/>
<path d="M102.884 1144.56C101.926 1146.5 100.835 1148.11 98.5031 1148.22C96.2247 1148.33 95.0568 1146.97 94.2548 1145.18C93.3954 1143.2 92.909 1141.16 92.7418 1139.04C92.547 1136.44 93.8154 1134.83 96.2409 1134.04C98.7906 1133.24 100.647 1134.29 101.883 1136.39C103.432 1139 103.204 1141.82 102.884 1144.56Z" fill="#FEDCA6"/>
<path d="M165.689 1193.96C165.693 1194.14 165.643 1194.3 165.539 1194.44C162.578 1196.95 161.004 1196.7 159.159 1193.53C157.849 1191.29 157.48 1188.87 157.359 1186.41C157.211 1183.47 159.359 1181.3 162.458 1181.2C165.502 1181.08 166.117 1183.28 166.395 1185.61C166.755 1188.44 166.882 1191.26 165.689 1193.96Z" fill="#FEDCA6"/>
<path d="M155.959 1368.8C155.962 1368.97 155.912 1369.14 155.808 1369.28C152.847 1371.79 151.274 1371.53 149.428 1368.36C148.118 1366.12 147.749 1363.71 147.628 1361.25C147.48 1358.31 149.628 1356.14 152.727 1356.04C155.771 1355.92 156.386 1358.12 156.664 1360.45C157.024 1363.28 157.152 1366.1 155.959 1368.8Z" fill="#DCCFA8"/>
<path d="M130.068 1272.91C130.071 1273.09 130.021 1273.25 129.917 1273.4C126.956 1275.91 125.383 1275.65 123.537 1272.48C122.227 1270.24 121.858 1267.82 121.737 1265.36C121.589 1262.42 123.738 1260.26 126.836 1260.16C129.881 1260.04 130.495 1262.24 130.773 1264.57C131.079 1267.38 131.207 1270.2 130.068 1272.91Z" fill="#DCCFA8"/>
<path d="M113.816 1145.83C113.819 1146 113.769 1146.17 113.665 1146.31C110.704 1148.82 109.131 1148.56 107.285 1145.39C105.975 1143.15 105.606 1140.74 105.485 1138.28C105.337 1135.34 107.486 1133.17 110.584 1133.07C113.629 1132.95 114.243 1135.15 114.521 1137.48C114.827 1140.29 115.009 1143.13 113.816 1145.83Z" fill="#FEDCA6"/>
<path d="M131.112 1279.62C131.186 1279.76 131.334 1280.04 131.318 1280.1C130.931 1280.39 130.854 1280.07 130.759 1279.8C130.847 1279.71 130.971 1279.69 131.112 1279.62Z" fill="#DCCFA8"/>
<path d="M219.638 1403.23C219.405 1404.93 219.794 1406.53 220.431 1408.09C219.942 1409.47 219.97 1410.9 220.426 1412.28C220.446 1412.4 220.466 1412.53 220.487 1412.65C219.609 1415.1 219.609 1415.1 213.443 1415.96C218.997 1420.1 222.143 1425.92 226.917 1430.3C226.445 1431.63 227.199 1432.81 227.456 1434.07C228.755 1441.09 223.454 1446 216.768 1443.98C214.239 1443.2 211.84 1443.52 209.6 1444.65C208.065 1445.41 206.469 1445.81 204.849 1445.89C200.719 1446.09 198.085 1443.55 198.607 1439.4C199.24 1434.52 200.212 1429.68 201.13 1424.83C201.628 1422.09 202.952 1419.73 204.926 1417.74C205.607 1417.07 206.144 1416.29 206.214 1415.3L206.251 1415.38C208.207 1416.1 209.978 1415.53 211.745 1414.78C212.03 1414.81 212.565 1414.8 212.565 1414.8C212.624 1414.22 212.127 1414.31 211.821 1414.15L211.858 1414.22C211.451 1410.79 210.919 1407.37 211.883 1403.89C211.95 1403.68 211.371 1403.26 211.061 1402.93C214.878 1399.57 216.572 1399.62 219.638 1403.23Z" fill="#DCCFA8"/>
<path d="M199.272 1413.92C198.6 1416.84 200.028 1419.64 199.82 1422.59C199.595 1425.59 199.057 1428.08 195.701 1428.64C192.29 1429.17 190.91 1426.97 190.103 1424.06C189.489 1421.86 189.409 1419.65 189.577 1417.4C189.978 1412.5 193.417 1410.74 197.708 1413.25C198.126 1413.62 198.734 1413.75 199.272 1413.92Z" fill="#DCCFA8"/>
<path d="M201.071 1400.53C205.427 1400.94 206.949 1404.01 207.468 1407.66C207.658 1409.14 208.718 1410.47 208.108 1412.05C207.81 1412.26 207.527 1412.4 207.175 1412.59C205.19 1414.04 203.149 1415.3 200.546 1414.37L200.583 1414.44C200.22 1414.09 199.873 1413.69 199.51 1413.34C197.528 1411.37 197.582 1408.72 197.122 1406.22C196.573 1402.86 200.152 1402.73 201.071 1400.53Z" fill="#DCCFA8"/>
<path d="M228.458 1410.34C231.511 1414.19 230.273 1418.17 228.55 1422.01C227.749 1423.83 225.897 1423.9 224.217 1423.62C222.213 1423.23 220.904 1421.94 220.418 1419.9C219.817 1417.46 220.748 1415.04 220.503 1412.6C220.483 1412.47 220.462 1412.35 220.425 1412.28C222.674 1409.79 225.335 1409.2 228.458 1410.34Z" fill="#DCCFA8"/>
<path d="M185.364 690.534C186.358 688.039 187.37 685.599 188.293 683.067C188.803 681.668 188.959 680.084 190.701 679.424C191.491 679.12 192.06 678.293 191.9 677.398C190.574 670.663 193.693 664.377 193.594 657.792C193.596 655.901 193.723 654.031 193.439 652.169C193.003 649.056 192.311 646.259 194.019 642.833C195.855 639.25 194.23 634.971 192.487 631.259C191.719 629.548 191.006 627.821 190.192 625.77C195.358 624.933 199.856 623.653 204.858 625.702C210.071 627.863 212.954 625.372 213.031 619.737C213.069 616.062 211.854 612.719 210.332 609.529C209.34 607.475 208.31 605.491 207.91 603.253C206.811 597.628 200.092 595.935 195.674 600.32C194.873 601.16 194.263 602.235 192.992 602.512C192.848 602.616 192.72 602.774 192.521 602.895C192.525 602.716 192.582 602.521 192.586 602.343C192.661 601.256 192.807 600.207 192.775 599.154C192.677 596.939 193.363 596.49 195.375 597.46C197.245 598.355 198.759 597.531 199.863 595.77C201.392 593.286 202 590.498 202.004 587.662C202.035 584.344 199.438 583.202 196.807 582.897C194.052 582.572 193.367 584.734 193.018 587.028C192.625 589.749 192.749 592.428 193.28 595.275C192.837 595.177 192.39 595.257 192.269 595.058C190.809 593.208 188.899 591.616 186.606 592.21C184.098 592.871 183.457 595.551 183.124 597.899C182.881 599.392 182.956 600.964 182.961 602.498C183.006 606.442 185.788 607.231 189.525 607.488C186.5 610.85 185.658 614.597 185.239 619.512C182.039 614.717 178.85 611.1 175.373 607.691C164.134 596.77 151.06 589.432 135.581 586.503C133.38 586.065 131.135 586.053 128.911 585.918C125.601 585.706 122.223 586.224 119.612 583.136C118.132 581.41 115.748 582.092 113.919 582.66C107.75 584.636 101.56 586.737 95.7128 589.558C93.823 590.499 91.859 591.582 91.9834 594.261C92.0959 595.761 90.9292 596.183 89.8833 596.803C77.295 604.318 68.4198 615.05 62.3814 628.268C58.4819 626.349 58.0683 626.536 55.8116 630.663C54.1275 633.786 52.8498 637.077 51.7836 640.48C50.9434 643.281 50.5909 645.754 52.9339 647.979C53.7564 648.728 53.7385 649.619 53.2568 650.537C52.1823 652.584 52.26 654.922 51.629 657.068C50.4541 661.45 50.9301 665.259 54.9359 668.091C56.3059 669.083 56.5056 670.675 56.9575 672.129C64.731 696.768 80.1654 714.36 104.812 723.064C113.765 726.249 122.965 726.816 132.401 725.479C135.795 725.015 139.257 724.766 142.686 724.41C148.524 723.836 153.81 721.485 159.36 720.174C164.134 715.796 167.28 709.975 172.833 705.828C166.684 705.021 166.684 705.021 165.79 702.523C165.545 704.962 166.53 707.373 165.875 709.821C165.389 711.862 164.08 713.155 162.077 713.541C160.45 713.81 158.544 713.753 157.743 711.934C156.074 708.082 154.782 704.112 157.835 700.269C157.116 697.007 156.451 693.728 156.261 689.889C159.423 693.041 162.269 695.938 165.809 698.028C166.5 696.454 166.835 694.874 166.601 693.174C165.127 692.037 163.364 691.108 162.163 689.709C158.958 686.039 154.942 682.797 155.144 677.182C155.378 669.961 155.683 662.778 157.089 655.725C157.35 654.286 157.399 652.735 158.678 651.156C163.301 663.188 173.382 669.625 182.827 676.673C183.669 677.297 185.252 677.455 184.665 679.173C183.947 681.228 183.81 683.633 182.067 685.238C181.831 685.429 180.965 685.108 180.471 684.848C174.899 681.912 169.509 678.802 165.657 673.62C164.755 672.423 163.883 670.568 162.094 671.832C160.395 673.01 161.593 674.587 162.351 675.887C165.641 681.54 171.192 684.6 176.545 687.78C180.367 690.019 180.512 689.915 177.913 693.322C177.492 693.866 177.276 694.878 176.137 694.819C175.866 694.135 175.557 693.522 175.302 692.892C174.993 693.225 174.414 693.641 174.481 693.856C175.445 697.337 174.913 700.751 174.506 704.186C175.817 703.66 177.216 703.226 178.218 702.087C177.609 700.505 178.669 699.171 178.859 697.694C179.485 694.014 181.008 690.942 185.364 690.534ZM90.4998 669.977C97.5479 672.158 104.837 672.079 112.11 671.946C114.338 671.903 117.043 669.409 118.483 671.383C119.731 673.122 118.92 676.209 119.371 678.609C119.822 681.009 118.854 681.31 116.787 681.302C105.972 681.236 95.2902 679.889 84.7874 677.6C75.9881 675.667 67.5163 672.511 60.3246 666.83C54.7814 662.468 54.2876 659.55 57.6667 652.77C62.2715 657.719 67.5565 661.629 73.6865 664.273C75.5238 665.061 77.7605 666.374 78.9163 663.829C79.961 661.496 77.3167 660.959 75.832 660.357C68.0559 657.162 62.2186 651.474 56.6909 645.453C55.8888 644.58 55.4763 643.822 55.8205 642.652C56.7623 639.229 57.6503 635.822 59.8115 632.906C63.3595 636.352 66.6553 639.935 70.3516 643.099C81.8971 652.92 95.4457 657.04 110.412 656.229C119.278 655.719 119.198 655.271 118.663 664.18C118.556 665.926 118.119 666.416 116.26 666.698C107.625 668.141 99.1364 667.589 90.5953 666.108C90.4256 667.46 89.6176 668.656 90.4998 669.977ZM97.1225 596.562C96.5164 594.801 96.9478 593.722 98.7062 593.117C99.5131 592.866 100.407 592.706 101.023 592.22C104.118 589.841 105.803 591.089 107.56 594.087C114.57 606.204 124.25 615.719 136.774 622.047C140.338 623.834 144.104 625.322 147.721 627.093C160.249 633.242 173.311 636.745 187.408 634.846C188.087 634.753 189.068 634.684 189.34 635.368C190.104 637.257 190.437 639.28 189.934 641.267C189.546 642.865 187.929 642.599 186.679 642.751C172.996 644.463 159.984 641.122 146.959 637.549C138.382 635.193 130.286 631.919 123.149 626.222C114.063 619.003 106.973 610.041 100.065 600.906C99.0412 599.51 98.1088 598.028 97.1225 596.562ZM140.352 695.068C139.268 691.389 138.647 687.683 137.919 684.01C135.294 670.058 136.759 656.549 141.8 643.346C142.457 641.665 143.15 640.859 145.166 641.65C147.783 642.668 150.547 643.404 153.333 644.015C155.107 644.409 155.627 645.134 155.057 646.906C154.244 649.226 153.572 651.62 153.095 654.072C150.627 666.062 150.508 678.208 151.976 690.334C152.87 698.149 154.175 705.955 157.395 713.283C157.754 714.057 158.395 714.981 157.752 715.948C156.028 718.374 149.636 718.115 148.584 715.489C145.692 708.649 143.049 701.85 140.352 695.068ZM129.147 703.807C126.486 695.242 124.912 687.52 124.001 679.652C122.47 667.132 122.899 654.653 125.925 642.371C127.667 635.45 127.792 635.471 133.872 637.953C134.083 638.064 134.332 638.105 134.543 638.217C139.018 639.898 138.947 639.861 137.077 644.282C132.867 654.273 131.587 664.772 132.263 675.489C133.114 689.048 137.924 701.493 142.789 713.922C143.415 715.559 145.309 717.097 144.635 718.724C143.887 720.493 141.401 719.138 139.868 720.087C137.756 721.452 136.551 720.232 135.447 718.389C132.533 713.565 130.429 708.312 129.147 703.807ZM186.68 628.515C187.87 630.449 186.952 630.911 185.258 630.965C183.618 631.002 181.958 631.163 180.284 631.093C169.954 630.877 160.484 627.735 150.995 623.772C135.003 617.104 121.067 608.321 112.001 593.003C109.536 588.866 109.442 589.131 114.216 587.412C116.98 586.435 118.774 586.704 120.286 589.483C121.762 592.333 124.195 594.471 126.431 596.73C134.413 604.764 143.977 610.299 154.259 614.724C162.297 618.193 170.27 622.213 179.119 622.595C183.712 622.762 184.993 625.554 186.68 628.515ZM75.6973 641.32C75.775 641 75.8228 640.395 76.0116 639.863C76.9559 637.207 77.8463 634.568 79.234 632.01C83.0434 625.097 88.4307 619.465 93.573 613.614C99.0619 607.36 99.1324 607.398 104.317 613.643C107.448 617.455 107.518 617.492 103.606 620.657C95.381 627.406 89.4762 635.739 86.0663 645.836C85.8941 646.421 86.2325 647.32 85.0598 647.153C84.1155 647.151 76.0858 642.38 75.6973 641.32ZM113.109 720.722C105.96 719.163 99.9634 716.951 94.3988 713.659C93.3074 712.994 92.3104 712.063 91.6194 710.978C86.7491 703.276 82.2385 695.404 79.9943 686.473C78.623 681.11 78.825 680.811 84.0597 681.902C86.2604 682.34 88.418 682.26 89.4426 685.368C93.9462 698.914 102.005 710.232 113.109 720.722ZM92.6713 683.42C95.8701 683.844 98.4235 684.468 100.971 684.503C103.518 684.539 104.28 685.661 104.929 687.94C108.45 699.842 116.061 708.582 126.539 714.778C128.494 715.942 129.728 717.449 130.815 719.238C131.748 720.72 131.344 721.318 129.579 721.335C126.067 721.422 122.126 723.355 119.759 718.774C119.363 718.07 118.211 717.779 117.365 717.333C115.074 716.036 112.891 714.706 111.15 712.707C103.625 704.058 97.2214 694.647 92.6713 683.42ZM89.7194 648.482C89.8139 648.216 89.8916 647.896 90.023 647.56C93.7796 637.06 100.504 628.709 108.881 621.499C109.77 620.75 110.378 620.62 111.251 621.531C112.979 623.297 114.799 624.976 116.618 626.656C117.528 627.495 118.085 628.149 116.605 629.082C109.078 633.901 104.714 640.928 102.741 649.575C102.622 650.143 102.484 650.836 102.12 651.185C101.175 652.129 90.6149 650.034 89.8904 648.842C89.8737 648.788 89.8402 648.68 89.7194 648.482ZM92.1307 600.24C94.8669 599.744 95.0189 601.942 96.0661 603.034C97.3213 604.416 96.3626 605.127 95.2725 606.175C86.0433 615.009 77.113 624.045 72.5174 636.401C72.2915 637.003 72.3106 637.824 71.175 637.586C68.7089 637.052 66.0059 632.34 66.8557 629.949C70.255 620.387 77.0253 613.321 84.0407 606.475C86.5843 604.031 89.6516 602.133 92.1307 600.24ZM160.98 645.656C164.904 646.327 167.931 647.336 171.103 647.295C173.278 647.269 174.614 648.154 175.519 650.117C176.813 653.141 178.95 655.844 181.866 657.065C188.705 659.902 189.499 664.735 187.572 671.064C186.924 673.155 186.708 674.167 184.569 672.41C180.238 668.912 175.577 665.871 171.519 662.111C166.742 657.747 163.395 652.29 160.98 645.656ZM117.852 651.318C114.924 651.578 112.014 651.892 109.086 652.152C107.248 652.309 106.963 651.394 107.281 649.759C107.822 646.755 109.193 644.144 110.776 641.644C113.133 637.84 115.859 634.275 119.899 631.898C121.449 631.003 122.742 631.369 124.166 632.344C125.22 633.08 125.152 633.81 124.617 634.744C122.071 639.079 120.852 643.888 120.147 648.833C119.832 650.289 119.176 651.025 117.852 651.318ZM126.206 709.151C125.568 708.995 125.175 709.058 124.93 708.839C118.353 703.617 113.134 697.264 109.887 689.471C108.205 685.386 108.313 685.353 112.914 685.164C114.786 685.114 116.695 684.993 118.567 684.943C119.441 684.908 120.261 684.889 120.434 686.017C121.577 693.873 123.796 701.394 126.206 709.151ZM61.8789 673.731C66.3127 675.661 69.9503 677.307 73.6083 678.828C74.8981 679.373 74.9543 680.123 74.9126 681.318C74.8519 687.007 77.0468 692.173 79.0099 697.352C79.72 699.258 80.8808 700.906 81.1965 703.82C72.3216 695 66.0992 685.415 61.8789 673.731ZM179.241 618.244C172.786 617.592 167.731 615.559 162.713 613.456C159.727 612.198 161.292 609.644 162.161 608.075C162.956 606.646 164.236 604.122 166.798 606.103C171.22 609.513 175.171 613.307 179.241 618.244ZM161.298 602.259C159.962 604.033 157.746 605.253 157.578 607.372C157.277 611.719 155.252 610.517 152.908 609.237C151.568 608.531 149.447 608.54 150.139 606.021C150.966 602.988 152.798 600.529 155.528 599.444C157.861 598.601 159.636 600.708 161.298 602.259ZM145.239 595.376C146.722 594.265 147.652 594.98 148.664 595.197C151.573 595.829 151.962 596.89 149.483 598.783C147.962 599.964 146.808 601.563 146.379 603.409C145.872 605.575 144.823 605.428 143.4 604.453C141.818 603.35 139.274 603.136 139.18 600.743C139.126 598.102 141.268 597.023 143.44 596.23C144.23 595.925 144.916 595.476 145.239 595.376ZM188.968 656.571C185.656 654.647 182.718 652.783 180.51 650.043C180.023 649.427 178.674 648.31 180.453 647.58C185.52 645.474 188.827 647.577 189.321 653.153C189.407 654.19 189.547 655.21 188.968 656.571ZM140.433 592.438C138.408 593.895 136.602 595.105 135.689 597.102C135.167 598.269 134.471 598.308 133.508 597.485C131.127 595.33 128.694 593.192 125.786 590.669C131.087 590.263 135.566 590.82 140.433 592.438Z" fill="#DCCFA8"/>
<path d="M229.416 665.446C229.778 663.384 228.88 661.064 230.61 659.227C230.506 659.082 230.509 658.904 230.459 658.742C228.174 658.98 227.958 656.389 226.084 655.672C223.608 654.728 222.21 655.162 221.135 657.209C219.488 660.261 219.225 663.592 219.819 666.833C220.367 669.734 223.028 670.325 226.089 670.496C223.44 673.741 222.374 677.144 222.229 680.852C222.017 686.057 225.482 689.233 230.494 688.089C234.414 687.226 238.03 687.284 241.886 688.685C247.015 690.576 249.861 688.156 249.72 682.765C249.524 675.679 245.67 669.729 243.231 663.398C241.995 660.179 236.776 660.088 233.503 662.463C232.218 663.453 231.419 665.06 229.681 665.541C229.587 665.806 229.455 666.143 229.123 665.832C229.156 665.94 229.305 665.658 229.416 665.446Z" fill="#DCCFA8"/>
<path d="M220.745 483.96C218.46 484.197 218.244 481.606 216.37 480.889C213.894 479.945 212.496 480.38 211.421 482.427C209.774 485.478 209.511 488.809 210.105 492.05C210.653 494.952 213.314 495.543 216.375 495.714C213.727 498.959 212.66 502.362 212.515 506.069C212.303 511.274 215.768 514.451 220.78 513.307C224.7 512.443 228.316 512.501 232.172 513.902C237.302 515.793 240.148 513.373 240.006 507.983C239.81 500.896 235.956 494.946 233.517 488.616C232.281 485.396 227.062 485.305 223.789 487.681C222.504 488.67 221.705 490.277 219.967 490.758C219.873 491.024 219.741 491.36 219.409 491.05C219.392 490.996 219.541 490.714 219.615 490.572C219.977 488.511 219.079 486.19 220.809 484.353C220.792 484.3 220.742 484.138 220.745 483.96Z" fill="#FEDCA6"/>
<path d="M255.322 569.619C255.684 567.557 254.786 565.237 256.516 563.4C256.412 563.255 256.416 563.077 256.365 562.915C254.08 563.153 253.864 560.561 251.99 559.844C249.514 558.9 248.116 559.335 247.041 561.382C245.394 564.434 245.131 567.764 245.726 571.006C246.256 573.853 248.843 574.585 252.086 574.582C249.347 577.914 248.297 581.371 248.135 585.024C247.924 590.229 251.388 593.406 256.4 592.262C260.32 591.399 263.936 591.456 267.792 592.857C272.922 594.749 275.768 592.329 275.626 586.938C275.43 579.852 271.576 573.902 269.137 567.571C267.901 564.352 262.682 564.26 259.409 566.636C258.124 567.626 257.325 569.233 255.587 569.713C255.493 569.979 255.362 570.315 255.029 570.005C255.1 570.042 255.248 569.76 255.322 569.619Z" fill="#DCCFA8"/>
<path d="M272.619 435.826C270.333 436.063 270.118 433.472 268.243 432.755C265.768 431.811 264.369 432.246 263.295 434.293C261.648 437.345 261.385 440.675 261.979 443.916C262.527 446.818 265.188 447.409 268.249 447.58C265.6 450.825 264.534 454.228 264.388 457.935C264.177 463.14 267.641 466.317 272.654 465.173C276.573 464.309 280.189 464.367 284.046 465.768C289.175 467.66 292.021 465.239 291.88 459.849C291.683 452.762 287.829 446.812 285.39 440.482C284.154 437.263 278.935 437.171 275.662 439.547C274.377 440.537 273.579 442.143 271.841 442.624C271.746 442.89 271.615 443.226 271.283 442.916C271.266 442.862 271.414 442.58 271.488 442.439C271.85 440.377 270.952 438.057 272.682 436.22C272.665 436.166 272.669 435.988 272.619 435.826Z" fill="#FEDCA6"/>
<path d="M253.172 658.183C251.884 658.406 251.171 659.336 250.686 660.432C249.358 663.562 249.327 666.88 249.706 670.188C249.939 671.888 251.033 673.32 252.881 673.573C254.712 673.772 255.997 672.782 256.779 671.121C258.207 668.314 258.554 665.253 258.668 662.205C258.827 658.73 256.507 657.147 253.172 658.183Z" fill="#DCCFA8"/>
<path d="M240.104 495.961C240.526 497.129 241.355 498.467 243.078 498.699C244.927 498.952 246.228 498.016 247.064 496.339C248.512 493.407 248.825 490.239 249.014 487.049C249.144 485 248.39 483.522 246.277 483.174C244.234 482.864 242.271 483.001 241.068 485.206C239.977 487.199 239.318 493.429 240.104 495.961Z" fill="#FEDCA6"/>
<path d="M295.475 435.163C294.349 435.336 293.552 435.997 293.05 437.039C291.487 440.36 291.415 443.926 291.915 447.433C292.168 449.009 293.229 450.333 294.899 450.582C296.693 450.852 298.065 449.953 298.901 448.275C300.481 445.008 300.996 441.54 300.819 437.933C300.708 435.486 298.289 434.348 295.475 435.163Z" fill="#FEDCA6"/>
<path d="M212.926 607.247C213.673 609.082 214.538 610.349 216.245 610.527C217.882 610.669 219.163 609.857 219.978 608.304C221.649 604.95 222.06 601.337 221.974 597.642C221.939 595.822 220.562 595.186 219.141 594.978C217.239 594.742 215.26 594.826 214.185 596.873C212.46 600.244 212.778 603.925 212.926 607.247Z" fill="#DCCFA8"/>
<path d="M275.558 574.377C276.235 576.175 277.117 577.496 278.824 577.674C280.477 577.87 281.776 577.112 282.591 575.559C284.316 572.188 284.727 568.575 284.64 564.88C284.609 562.882 283.108 562.226 281.579 562.051C279.694 561.869 277.764 562.114 276.76 564.198C275.16 567.59 275.374 571.126 275.558 574.377Z" fill="#DCCFA8"/>
<path d="M208.727 583.86C205.492 585.22 204.729 587.701 204.494 590.551C204.296 593.329 204.474 595.991 207.238 597.673C207.819 598.024 208.565 598.146 209.223 598.178C212.197 598.258 214.258 595.019 214.759 589.606C215.055 586.383 213.441 584.226 210.437 583.86C209.816 583.758 209.083 583.868 208.727 583.86Z" fill="#DCCFA8"/>
<path d="M241.303 657.381C242.137 659.308 243.228 660.918 245.503 661.216C247.885 661.48 249.197 660.009 250.003 658.045C250.788 656.206 251.238 654.236 251.455 652.278C251.72 649.714 250.597 647.996 248.208 647.143C245.571 646.25 243.574 647.225 242.28 649.517C240.859 651.967 241.054 654.682 241.303 657.381Z" fill="#DCCFA8"/>
<path d="M267.263 561.537C268.097 563.463 269.134 565.091 271.462 565.371C273.845 565.635 275.174 564.218 275.98 562.255C276.765 560.416 277.231 558.499 277.432 556.487C277.701 553.746 276.453 552.007 273.849 551.221C271.138 550.468 269.278 551.696 268.109 554.009C266.816 556.301 266.977 558.909 267.263 561.537Z" fill="#DCCFA8"/>
<path d="M235.792 472.019C232.702 473.274 231.748 475.52 231.496 478.316C231.224 481.236 231.274 484.055 234.072 485.844C234.723 486.233 235.61 486.43 236.43 486.411C239.263 486.417 241.348 482.875 241.72 477.62C241.98 474.468 240.446 472.759 237.482 472.143C236.881 471.917 236.148 472.026 235.792 472.019Z" fill="#FEDCA6"/>
<path d="M283.55 434.556C284.509 436.503 285.599 438.113 287.931 438.216C290.21 438.335 291.377 436.968 292.18 435.183C293.039 433.203 293.525 431.161 293.693 429.042C293.887 426.441 292.619 424.827 290.193 424.045C287.644 423.242 285.787 424.292 284.551 426.389C283.002 428.997 283.231 431.82 283.55 434.556Z" fill="#FEDCA6"/>
<path d="M220.745 483.96C220.741 484.138 220.792 484.3 220.896 484.445C223.857 486.951 225.43 486.698 227.275 483.526C228.585 481.287 228.955 478.869 229.075 476.41C229.223 473.469 227.075 471.301 223.977 471.201C220.932 471.083 220.318 473.283 220.039 475.614C219.68 478.443 219.552 481.259 220.745 483.96Z" fill="#FEDCA6"/>
<path d="M230.476 658.796C230.472 658.975 230.522 659.136 230.626 659.281C233.587 661.787 235.161 661.535 237.006 658.362C238.316 656.124 238.685 653.705 238.806 651.246C238.954 648.306 236.806 646.138 233.707 646.037C230.663 645.92 230.049 648.119 229.77 650.45C229.41 653.279 229.283 656.095 230.476 658.796Z" fill="#DCCFA8"/>
<path d="M256.367 562.914C256.363 563.093 256.413 563.254 256.517 563.399C259.478 565.905 261.051 565.653 262.897 562.48C264.207 560.242 264.576 557.824 264.697 555.364C264.845 552.424 262.697 550.256 259.598 550.155C256.554 550.038 255.939 552.237 255.661 554.568C255.355 557.381 255.227 560.197 256.367 562.914Z" fill="#DCCFA8"/>
<path d="M272.619 435.826C272.615 436.005 272.665 436.166 272.769 436.311C275.73 438.817 277.303 438.565 279.149 435.392C280.459 433.154 280.828 430.735 280.949 428.276C281.097 425.336 278.949 423.168 275.85 423.067C272.806 422.95 272.191 425.149 271.913 427.48C271.607 430.293 271.425 433.125 272.619 435.826Z" fill="#FEDCA6"/>
<path d="M255.322 569.618C255.248 569.76 255.1 570.042 255.117 570.096C255.503 570.389 255.581 570.07 255.675 569.804C255.588 569.713 255.463 569.693 255.322 569.618Z" fill="#DCCFA8"/>
<path d="M166.796 693.231C167.029 694.931 166.641 696.528 166.004 698.085C166.493 699.469 166.464 700.895 166.009 702.277C165.988 702.402 165.968 702.526 165.948 702.651C166.825 705.095 166.825 705.095 172.991 705.956C167.438 710.103 164.292 715.924 159.517 720.302C159.99 721.632 159.235 722.812 158.978 724.073C157.679 731.092 162.98 736.002 169.667 733.984C172.195 733.198 174.594 733.516 176.834 734.651C178.369 735.415 179.965 735.805 181.585 735.892C185.715 736.086 188.349 733.554 187.827 729.404C187.194 724.521 186.222 719.684 185.304 714.83C184.807 712.09 183.482 709.726 181.508 707.74C180.827 707.065 180.29 706.287 180.221 705.304L180.184 705.375C178.227 706.101 176.456 705.529 174.69 704.778C174.404 704.808 173.87 704.797 173.87 704.797C173.81 704.225 174.307 704.306 174.613 704.152L174.576 704.223C174.984 700.788 175.515 697.374 174.552 693.893C174.485 693.678 175.063 693.262 175.373 692.929C171.556 689.567 169.862 689.621 166.796 693.231Z" fill="#DCCFA8"/>
<path d="M187.162 703.915C187.834 706.837 186.406 709.644 186.614 712.592C186.839 715.594 187.377 718.085 190.734 718.637C194.144 719.172 195.525 716.971 196.331 714.062C196.946 711.863 197.026 709.652 196.857 707.401C196.456 702.504 193.017 700.738 188.726 703.252C188.309 703.618 187.7 703.748 187.162 703.915Z" fill="#DCCFA8"/>
<path d="M185.364 690.534C181.008 690.942 179.485 694.014 178.966 697.661C178.776 699.137 177.716 700.471 178.326 702.054C178.625 702.256 178.907 702.405 179.259 702.591C181.244 704.041 183.286 705.297 185.888 704.371L185.851 704.441C186.214 704.092 186.561 703.689 186.924 703.34C188.906 701.365 188.852 698.724 189.312 696.218C189.861 692.858 186.282 692.729 185.364 690.534Z" fill="#DCCFA8"/>
<path d="M157.976 700.343C154.923 704.186 156.162 708.172 157.884 712.008C158.685 713.827 160.537 713.901 162.218 713.615C164.221 713.229 165.53 711.937 166.017 709.895C166.618 707.464 165.686 705.036 165.931 702.597C165.952 702.472 165.972 702.348 166.009 702.277C163.76 699.786 161.099 699.195 157.976 700.343Z" fill="#DCCFA8"/>
<path d="M60.6313 9.33192C60.1223 8.3438 60.2121 7.02631 59.0443 6.36755C59.0742 6.27772 59.0443 6.18789 59.0443 6.09806C60.242 5.85851 59.9426 4.51107 60.781 3.85232C61.8889 2.98396 62.6674 2.98396 63.5358 3.85232C64.8533 5.13987 65.512 6.78674 65.7216 8.52345C65.9013 10.0805 64.6437 10.7991 63.1166 11.3681C64.9731 12.5957 66.051 14.1528 66.7098 16.0093C67.638 18.6143 66.3804 20.7702 63.6556 20.9799C61.5296 21.1595 59.703 21.7584 57.9663 23.0759C55.6607 24.8425 53.8342 24.064 53.0557 21.3092C52.0376 17.6861 53.0557 14.063 53.2952 10.4698C53.415 8.64323 56.05 7.77489 58.0861 8.46358C58.8946 8.76301 59.5533 9.45169 60.5115 9.42175C60.6013 9.54152 60.7211 9.69124 60.8409 9.48164C60.8409 9.54153 60.7211 9.42175 60.6313 9.33192Z" fill="#939C71" fill-opacity="0.32"/>
<path d="M47.4261 9.39188C48.1148 9.30205 48.6238 9.66136 49.043 10.1405C50.2108 11.5178 50.7498 13.1947 51.0792 14.9314C51.2289 15.8297 50.8995 16.728 50.0012 17.1472C49.1029 17.5364 48.2945 17.237 47.6357 16.5184C46.4679 15.3206 45.8092 13.8235 45.2702 12.2964C44.6414 10.5597 45.5696 9.39188 47.4261 9.39188Z" fill="#939C71" fill-opacity="0.32"/>
<path d="M53.3248 7.11622C53.2051 8.22412 52.9056 9.21223 51.7977 9.72127C50.6299 10.2303 49.7317 9.69133 49.013 8.82297C48.3243 8.0145 47.7853 7.08626 47.3661 6.12808C46.8272 4.87047 47.1266 3.82246 48.2045 3.014C49.4023 2.14564 50.5701 2.32529 51.5881 3.28347C52.696 4.30154 53.0254 5.70889 53.3248 7.11622Z" fill="#939C71" fill-opacity="0.32"/>
<path d="M59.0443 6.12802C59.0742 6.21785 59.0742 6.30768 59.0443 6.39751C57.9364 8.13422 57.098 8.25399 55.6607 6.93649C54.6427 6.00825 54.0737 4.84047 53.6246 3.6128C53.0856 2.14558 53.8342 0.708301 55.3912 0.169323C56.9183 -0.369655 57.5771 0.648404 58.0861 1.78625C58.7149 3.16364 59.224 4.57097 59.0443 6.12802Z" fill="#939C71" fill-opacity="0.32"/>
<path d="M41.3927 101.068C40.7149 99.7517 40.8345 97.9973 39.2794 97.12C39.3193 97.0004 39.2794 96.8808 39.2794 96.7612C40.8744 96.4422 40.4756 94.6478 41.5921 93.7706C43.0675 92.6142 44.1042 92.6142 45.2606 93.7706C47.015 95.4852 47.8923 97.6783 48.1714 99.991C48.4106 102.025 46.8157 103.061 44.6226 103.739C47.1745 105.414 48.61 107.527 49.4872 109.96C50.7234 113.429 49.0486 116.3 45.4201 116.579C42.589 116.818 40.1566 117.615 37.8439 119.37C34.7736 121.723 32.3412 120.686 31.3045 117.017C29.9488 112.193 31.3045 107.368 31.6235 102.583C31.783 100.15 35.292 98.9941 38.0034 99.9112C39.08 100.31 39.9573 101.227 41.2332 101.187C41.3529 101.347 41.5124 101.546 41.6719 101.267C41.632 101.307 41.4725 101.147 41.3927 101.068Z" fill="#FED494"/>
<path d="M28.7123 108.524C28.6325 109.88 28.3135 110.956 27.1971 111.435C26.1205 111.913 25.0837 111.674 24.2065 110.797C22.3324 108.883 21.2956 106.53 20.5779 104.018C20.1792 102.662 21.0564 101.905 22.0533 101.466C23.2894 100.948 24.6451 100.709 25.7616 101.905C27.5559 103.859 28.154 106.291 28.7123 108.524Z" fill="#FED494"/>
<path d="M31.6232 98.1168C31.4637 99.5921 31.1048 100.908 29.5896 101.586C28.0345 102.264 26.8383 101.586 25.8813 100.429C24.9642 99.3529 24.2464 98.1566 23.6882 96.8408C22.9306 95.0464 23.4091 93.611 25.0041 92.5343C26.6788 91.4577 28.194 91.8964 29.47 93.2122C30.8257 94.4882 31.2643 96.2825 31.6232 98.1168Z" fill="#FED494"/>
<path d="M39.2784 96.761C39.3183 96.8806 39.3183 97.0002 39.2784 97.1199C37.8031 99.4326 36.6866 99.5921 34.7726 97.8376C33.4169 96.6015 32.6593 95.0464 32.0611 93.4115C31.3434 91.4577 32.3403 89.5437 34.4137 88.826C36.4473 88.1082 37.3246 89.464 38.0024 90.9792C38.7999 92.8134 39.4778 94.6875 39.2784 96.761Z" fill="#FED494"/>
<path d="M346.053 27.0748C346.244 28.2227 346.818 29.1792 347.545 30.0592C347.507 31.054 347.813 31.9723 348.387 32.7758C348.425 32.8523 348.463 32.9289 348.502 33.0054C348.425 34.7654 348.425 34.7654 344.599 36.5637C349.037 38.1325 352.251 41.2699 356.231 43.1447C356.192 44.1013 356.919 44.7135 357.34 45.4787C359.598 49.764 357.149 54.0111 352.404 54.0493C350.606 54.0493 349.114 54.738 347.889 55.9241C347.048 56.7276 346.091 57.3016 345.058 57.6842C342.418 58.6407 340.199 57.5312 339.701 54.738C339.128 51.4475 338.783 48.1188 338.401 44.79C338.171 42.9152 338.554 41.1169 339.434 39.4334C339.74 38.8594 339.931 38.2472 339.778 37.5968L339.816 37.635C341.232 37.7116 342.265 36.9846 343.26 36.1428C343.451 36.1046 343.795 35.9898 343.795 35.9898C343.719 35.6072 343.413 35.7602 343.183 35.722L343.222 35.7602C342.265 33.6176 341.232 31.5132 341.155 29.0644C341.155 28.9114 340.696 28.7583 340.428 28.6053C342.227 25.6591 343.336 25.353 346.053 27.0748Z" fill="#FED494"/>
<path d="M334.995 38.0942C335.148 40.1221 336.64 41.6525 337.1 43.6039C337.559 45.5935 337.712 47.3153 335.646 48.3483C333.541 49.3814 332.202 48.2336 331.092 46.5118C330.251 45.2109 329.753 43.7952 329.409 42.303C328.682 39.0507 330.557 37.2142 333.847 37.9794C334.192 38.1325 334.613 38.0942 334.995 38.0942Z" fill="#FED494"/>
<path d="M333.465 29.0645C336.373 28.4523 337.98 30.1358 339.051 32.3933C339.472 33.3115 340.429 33.962 340.352 35.1099C340.199 35.3012 340.046 35.4542 339.855 35.6455C338.86 36.9847 337.788 38.209 335.914 38.1325L335.952 38.1708C335.646 38.0177 335.34 37.8264 335.034 37.6734C333.35 36.7934 332.853 35.0716 332.049 33.5411C331.016 31.475 333.312 30.6715 333.465 29.0645Z" fill="#FED494"/>
<path d="M353.208 29.9063C355.963 31.7811 355.963 34.6125 355.618 37.4438C355.465 38.783 354.279 39.2039 353.131 39.3569C351.754 39.51 350.644 38.9361 349.917 37.7117C349.037 36.2577 349.152 34.4977 348.501 32.9672C348.463 32.8907 348.425 32.8142 348.387 32.7759C349.343 30.7098 350.95 29.7915 353.208 29.9063Z" fill="#FED494"/>
<path d="M351.335 125.033C350.572 126.516 350.707 128.492 348.955 129.48C349 129.615 348.955 129.749 348.955 129.884C350.752 130.244 350.302 132.265 351.56 133.253C353.222 134.555 354.39 134.555 355.692 133.253C357.668 131.321 358.657 128.851 358.971 126.246C359.24 123.911 357.354 122.833 355.063 121.979C357.848 120.138 359.465 117.802 360.453 115.017C361.846 111.11 359.959 107.876 355.872 107.562C352.683 107.292 349.943 106.394 347.338 104.417C343.88 101.768 341.14 102.935 339.972 107.067C338.445 112.502 339.972 117.937 340.331 123.327C340.511 126.066 344.464 127.369 347.518 126.336C348.73 125.887 349.719 124.854 351.156 124.899C351.291 124.719 351.47 124.494 351.65 124.809C351.65 124.719 351.47 124.899 351.335 125.033Z" fill="#939C71" fill-opacity="0.32"/>
<path d="M331.528 124.943C332.561 125.078 333.324 124.539 333.953 123.821C335.705 121.755 336.513 119.239 337.007 116.634C337.232 115.287 336.738 113.939 335.391 113.311C334.043 112.727 332.83 113.176 331.842 114.254C330.091 116.05 329.102 118.296 328.294 120.587C327.351 123.192 328.743 124.943 331.528 124.943Z" fill="#939C71" fill-opacity="0.32"/>
<path d="M340.376 128.357C340.196 126.695 339.747 125.213 338.085 124.449C336.333 123.686 334.986 124.494 333.908 125.797C332.875 127.01 332.067 128.402 331.438 129.839C330.629 131.726 331.078 133.298 332.695 134.51C334.492 135.813 336.244 135.543 337.771 134.106C339.433 132.579 339.927 130.468 340.376 128.357Z" fill="#939C71" fill-opacity="0.32"/>
<path d="M348.955 129.839C349 129.705 349 129.57 348.955 129.435C347.294 126.83 346.036 126.65 343.88 128.627C342.353 130.019 341.499 131.771 340.826 133.612C340.017 135.813 341.14 137.969 343.476 138.777C345.766 139.586 346.755 138.059 347.518 136.352C348.461 134.286 349.225 132.175 348.955 129.839Z" fill="#939C71" fill-opacity="0.32"/>
</svg>
