<svg width="64" height="64" viewBox="0 0 64 64" fill="none" xmlns="http://www.w3.org/2000/svg">
<rect x="1" y="1" width="62" height="62" rx="15" fill="#ECB869"/>
<rect x="1" y="1" width="62" height="62" rx="15" stroke="#939C71" stroke-width="2"/>
<circle cx="32.0001" cy="26.5001" r="7.33333" fill="#41311B"/>
<circle cx="41.1667" cy="26.5" r="5.5" fill="#41311B"/>
<circle cx="22.8333" cy="26.5" r="5.5" fill="#41311B"/>
<path fill-rule="evenodd" clip-rule="evenodd" d="M42.2088 43.0002H46.4742C47.5588 43.0002 48.3905 42.0654 48.127 41.0133C47.4519 38.3175 45.6545 33.8335 41.1667 33.8335C39.5422 33.8335 38.2702 34.421 37.2764 35.2986C40.0406 37.092 41.4698 40.2322 42.2088 43.0002Z" fill="#41311B"/>
<path fill-rule="evenodd" clip-rule="evenodd" d="M26.7238 35.2983C25.7299 34.4208 24.458 33.8333 22.8335 33.8333C18.3456 33.8333 16.5482 38.3173 15.8731 41.013C15.6096 42.0652 16.4413 42.9999 17.5259 42.9999H21.7913C22.5303 40.232 23.9595 37.0917 26.7238 35.2983Z" fill="#41311B"/>
<path d="M31.9999 35.6667C38.7991 35.6667 40.5551 41.7186 41.0087 44.8446C41.154 45.8466 40.3458 46.6667 39.3333 46.6667H24.6666C23.6541 46.6667 22.8458 45.8466 22.9912 44.8446C23.4447 41.7186 25.2007 35.6667 31.9999 35.6667Z" fill="#41311B"/>
</svg>
