<svg width="1888" height="287" viewBox="0 0 1888 287" fill="none" xmlns="http://www.w3.org/2000/svg">
<path d="M0 283.978V183.706C8.19458 183.706 14.9763 183.424 20.3452 182.859C25.9966 182.295 30.5177 180.603 33.9086 177.782C37.2995 174.962 39.7013 170.59 41.1142 164.667C42.527 158.461 43.2335 149.999 43.2335 139.281V6.85405H150.893V176.513C150.893 199.642 146.09 218.258 136.482 232.361C127.157 246.464 115.148 257.323 100.454 264.939C85.7605 272.555 69.5126 277.632 51.7106 280.17C33.9086 282.709 16.6717 283.978 0 283.978Z" fill="#FDD496"/>
<path d="M280.306 7.27714V160.436C280.306 170.026 280.164 178.911 279.882 187.09C279.882 194.988 280.164 201.899 280.729 207.822C281.577 213.463 282.849 217.976 284.544 221.361C286.522 224.463 289.63 226.015 293.869 226.015C297.825 226.015 300.651 224.463 302.346 221.361C304.324 217.976 305.596 213.463 306.161 207.822C306.726 201.899 307.009 194.988 307.009 187.09C307.009 178.911 307.009 170.026 307.009 160.436V7.27714H414.668V182.013C414.668 195.27 412.973 208.104 409.582 220.514C406.191 232.925 399.975 243.925 390.932 253.515C381.89 262.823 369.457 270.439 353.633 276.362C338.091 282.004 318.029 284.824 293.445 284.824C269.144 284.824 249.223 281.721 233.681 275.516C218.14 269.029 205.848 260.567 196.806 250.131C187.763 239.695 181.405 227.989 177.732 215.014C174.341 202.04 172.646 188.924 172.646 175.667V7.27714H280.306Z" fill="#FDD496"/>
<path d="M432.599 262.4V165.936C436.838 170.167 443.055 174.539 451.249 179.052C459.444 183.283 468.486 187.231 478.376 190.898C488.266 194.565 498.439 197.668 508.894 200.206C519.349 202.745 529.098 204.437 538.14 205.283C548.878 206.694 557.214 206.27 563.148 204.014C565.408 203.168 567.245 201.757 568.658 199.783C570.353 197.527 571.201 195.411 571.201 193.437C571.201 190.616 570.071 188.783 567.81 187.937C561.311 185.398 553.399 183.565 544.074 182.436C535.032 181.026 525.566 179.616 515.676 178.205C505.786 176.513 495.896 174.257 486.006 171.436C476.398 168.615 467.638 164.243 459.726 158.32C452.097 152.397 445.739 144.64 440.653 135.05C435.567 125.178 432.882 112.627 432.599 97.3953C432.034 77.369 434.719 61.1506 440.653 48.74C446.869 36.0473 455.629 26.1752 466.932 19.1237C478.235 12.0722 491.516 7.27714 506.775 4.7386C522.316 1.91801 539.129 0.366681 557.214 0.084625C568.799 -0.197448 580.384 0.225636 591.97 1.35388C603.555 2.48212 614.576 4.03346 625.031 6.00788C635.768 7.70024 645.659 9.95671 654.701 12.7773C663.743 15.5979 671.514 18.5595 678.013 21.6622V125.742C670.949 120.665 662.895 116.152 653.853 112.203C644.811 107.973 635.486 104.306 625.878 101.203C616.554 98.1004 607.229 95.5619 597.904 93.5875C588.579 91.6131 579.961 90.0617 572.049 88.9335C563.006 87.8053 555.236 87.6642 548.736 88.5104C542.52 89.0745 537.999 91.049 535.173 94.4337C533.478 96.126 532.63 98.1004 532.63 100.357C532.63 102.895 534.325 104.87 537.716 106.28C541.39 107.408 547.465 108.396 555.942 109.242C564.702 110.088 574.45 111.498 585.188 113.473C595.926 115.165 607.088 117.563 618.673 120.665C630.258 123.768 640.714 128.281 650.038 134.204C659.646 139.845 667.417 147.179 673.351 156.205C679.567 164.949 682.675 175.949 682.675 189.206C682.675 206.129 680.415 220.373 675.894 231.938C671.655 243.22 665.721 252.669 658.092 260.285C650.745 267.618 641.985 273.26 631.812 277.208C621.64 280.875 610.62 283.414 598.752 284.824C587.166 286.516 575.016 287.222 562.3 286.94C549.867 286.94 537.434 286.658 525 286.093C516.523 285.811 507.764 284.965 498.721 283.555C489.679 282.145 481.061 280.452 472.866 278.478C464.671 276.503 457.042 274.247 449.978 271.708C442.913 268.888 437.121 265.785 432.599 262.4Z" fill="#FDD496"/>
<path d="M765.811 281.863V107.549H694.603V7.27714H944.255V107.549H873.047V281.863H765.811Z" fill="#FDD496"/>
<path d="M1220.24 201.475C1225.04 201.475 1228.57 199.783 1230.83 196.398C1233.38 192.732 1234.93 188.219 1235.49 182.859C1236.34 177.5 1236.62 171.718 1236.34 165.513C1236.34 159.025 1236.2 153.102 1235.92 147.743L1371.55 148.166C1371.55 169.039 1368.87 187.937 1363.5 204.86C1358.41 221.784 1349.79 236.169 1337.64 248.015C1325.49 259.862 1309.53 269.029 1289.75 275.516C1269.97 281.721 1245.53 284.824 1216.42 284.824C1189.01 284.824 1165.42 281.58 1145.64 275.093C1126.14 268.606 1110.03 259.298 1097.32 247.169C1084.88 235.041 1075.7 220.373 1069.77 203.168C1064.11 185.68 1061.29 166.218 1061.29 144.781C1061.29 123.345 1064.11 104.024 1069.77 86.8181C1075.7 69.3303 1084.88 54.5222 1097.32 42.3936C1110.03 30.265 1126.14 20.9571 1145.64 14.4697C1165.42 7.98229 1189.01 4.7386 1216.42 4.7386C1242.42 4.7386 1264.74 7.27714 1283.39 12.3542C1302.32 17.4313 1318.01 25.0469 1330.44 35.2011C1343.15 45.0732 1352.76 57.4838 1359.26 72.433C1365.76 87.3822 1369.72 104.87 1371.13 124.896H1235.49C1235.21 121.229 1235.07 116.998 1235.07 112.203C1235.07 107.126 1234.65 102.472 1233.8 98.2415C1232.95 93.7285 1231.4 89.9207 1229.14 86.8181C1226.88 83.7154 1223.2 82.1641 1218.12 82.1641C1209.64 82.4461 1204.69 87.5232 1203.28 97.3953C1201.87 106.985 1201.3 121.37 1201.59 140.55C1201.59 163.397 1202.86 179.334 1205.4 188.36C1207.94 197.103 1212.89 201.475 1220.24 201.475Z" fill="#FDD496"/>
<path d="M1545.76 231.515H1500.41L1491.93 281.863H1377.49L1451.24 7.27714H1595.35L1669.95 281.863H1554.24L1545.76 231.515ZM1539.82 193.86L1523.72 95.2799L1506.76 193.86H1539.82Z" fill="#FDD496"/>
<path d="M1709.56 281.863V107.549H1638.35V7.27714H1888V107.549H1816.79V281.863H1709.56Z" fill="#FDD496"/>
</svg>
