<svg width="358" height="55" viewBox="0 0 358 55" fill="none" xmlns="http://www.w3.org/2000/svg">
<path d="M0 54.4209V35.2049C1.55384 35.2049 2.83978 35.1509 3.85782 35.0428C4.92944 34.9346 5.78673 34.6103 6.4297 34.0698C7.07267 33.5293 7.52811 32.6914 7.79601 31.5563C8.06392 30.3671 8.19787 28.7455 8.19787 26.6915V1.31349H28.6122V33.8265C28.6122 38.2589 27.7013 41.8264 25.8796 44.5291C24.1114 47.2318 21.8342 49.3128 19.048 50.7723C16.2618 52.2317 13.1809 53.2047 9.8053 53.6911C6.4297 54.1776 3.16127 54.4209 0 54.4209Z" fill="#ECB869"/>
<path d="M53.1512 1.39457V30.7455C53.1512 32.5833 53.1244 34.286 53.0708 35.8535C53.0708 37.367 53.1244 38.6913 53.2315 39.8265C53.3923 40.9075 53.6334 41.7724 53.9549 42.421C54.3299 43.0156 54.9193 43.3129 55.723 43.3129C56.4732 43.3129 57.009 43.0156 57.3305 42.421C57.7055 41.7724 57.9466 40.9075 58.0538 39.8265C58.161 38.6913 58.2145 37.367 58.2145 35.8535C58.2145 34.286 58.2145 32.5833 58.2145 30.7455V1.39457H78.6289V34.8806C78.6289 37.4211 78.3074 39.8805 77.6644 42.2589C77.0214 44.6372 75.8427 46.7453 74.1281 48.5831C72.4135 50.3669 70.0559 51.8263 67.0554 52.9614C64.1084 54.0425 60.3042 54.583 55.6427 54.583C51.0347 54.583 47.2573 53.9884 44.3103 52.7993C41.3634 51.556 39.0326 49.9344 37.318 47.9345C35.6034 45.9345 34.3979 43.6913 33.7013 41.2048C33.0583 38.7184 32.7369 36.2049 32.7369 33.6644V1.39457H53.1512Z" fill="#ECB869"/>
<path d="M82.0289 50.2858V31.7996C82.8326 32.6104 84.0114 33.4482 85.5653 34.313C87.1191 35.1238 88.8337 35.8806 90.709 36.5833C92.5844 37.286 94.5133 37.8806 96.4958 38.367C98.4783 38.8535 100.327 39.1778 102.041 39.34C104.077 39.6103 105.658 39.5292 106.783 39.0967C107.212 38.9346 107.56 38.6643 107.828 38.2859C108.15 37.8535 108.31 37.4481 108.31 37.0698C108.31 36.5292 108.096 36.1779 107.667 36.0157C106.435 35.5292 104.935 35.1779 103.167 34.9617C101.452 34.6914 99.657 34.4211 97.7817 34.1509C95.9064 33.8265 94.031 33.3941 92.1557 32.8536C90.334 32.3131 88.673 31.4752 87.1727 30.3401C85.726 29.205 84.5204 27.7185 83.556 25.8807C82.5915 23.9889 82.0825 21.5835 82.0289 18.6646C81.9218 14.8268 82.4308 11.7188 83.556 9.34041C84.7348 6.90801 86.3958 5.01615 88.539 3.66481C90.6822 2.31348 93.2005 1.39457 96.0939 0.908095C99.0409 0.367562 102.229 0.0702699 105.658 0.0162173C107.855 -0.0378385 110.052 0.0432404 112.249 0.259454C114.445 0.475668 116.535 0.772962 118.517 1.15134C120.554 1.47566 122.429 1.90808 124.143 2.44861C125.858 2.98915 127.332 3.55671 128.564 4.15129V24.097C127.224 23.124 125.697 22.2591 123.983 21.5024C122.268 20.6916 120.5 19.9889 118.678 19.3943C116.91 18.7997 115.142 18.3133 113.374 17.9349C111.606 17.5565 109.971 17.2592 108.471 17.043C106.756 16.8268 105.283 16.7998 104.051 16.9619C102.872 17.07 102.015 17.4484 101.479 18.097C101.157 18.4214 100.997 18.7997 100.997 19.2322C100.997 19.7186 101.318 20.097 101.961 20.3673C102.658 20.5835 103.81 20.7727 105.417 20.9348C107.078 21.097 108.927 21.3673 110.963 21.7456C112.999 22.07 115.115 22.5294 117.312 23.124C119.509 23.7186 121.491 24.5834 123.259 25.7186C125.081 26.7996 126.555 28.205 127.68 29.9347C128.859 31.6104 129.448 33.7184 129.448 36.2589C129.448 39.5021 129.019 42.2318 128.162 44.448C127.358 46.6102 126.233 48.4209 124.786 49.8804C123.393 51.2858 121.732 52.3668 119.803 53.1236C117.875 53.8263 115.785 54.3128 113.534 54.583C111.338 54.9073 109.034 55.0425 106.623 54.9884C104.265 54.9884 101.907 54.9344 99.5499 54.8263C97.9424 54.7722 96.2814 54.61 94.5668 54.3398C92.8523 54.0695 91.218 53.7452 89.6642 53.3668C88.1104 52.9884 86.6637 52.556 85.3242 52.0695C83.9846 51.529 82.8862 50.9344 82.0289 50.2858Z" fill="#ECB869"/>
<path d="M145.212 54.0155V20.6105H131.71V1.39457H179.048V20.6105H165.546V54.0155H145.212Z" fill="#ECB869"/>
<path d="M231.379 38.6103C232.29 38.6103 232.96 38.2859 233.389 37.6373C233.871 36.9346 234.166 36.0698 234.273 35.0428C234.434 34.0157 234.487 32.9076 234.434 31.7185C234.434 30.4752 234.407 29.3401 234.353 28.3131L260.072 28.3942C260.072 32.3941 259.563 36.0157 258.545 39.2589C257.581 42.5021 255.946 45.2588 253.642 47.5291C251.338 49.7993 248.311 51.556 244.56 52.7993C240.81 53.9884 236.175 54.583 230.656 54.583C225.459 54.583 220.985 53.9614 217.234 52.7182C213.537 51.475 210.483 49.6912 208.072 47.3669C205.714 45.0426 203.973 42.2318 202.848 38.9346C201.776 35.5833 201.24 31.8536 201.24 27.7456C201.24 23.6375 201.776 19.9349 202.848 16.6376C203.973 13.2863 205.714 10.4485 208.072 8.12421C210.483 5.79992 213.537 4.01616 217.234 2.77293C220.985 1.52971 225.459 0.908095 230.656 0.908095C235.586 0.908095 239.818 1.39457 243.355 2.36753C246.945 3.34049 249.918 4.79993 252.276 6.74585C254.687 8.63772 256.509 11.0161 257.741 13.8809C258.974 16.7457 259.724 20.097 259.992 23.9348H234.273C234.219 23.2321 234.192 22.4213 234.192 21.5024C234.192 20.5294 234.112 19.6376 233.951 18.8268C233.791 17.9619 233.496 17.2322 233.067 16.6376C232.639 16.043 231.942 15.7457 230.978 15.7457C229.37 15.7998 228.433 16.7727 228.165 18.6646C227.897 20.5024 227.79 23.2591 227.843 26.9348C227.843 31.3131 228.084 34.3671 228.566 36.0968C229.049 37.7724 229.986 38.6103 231.379 38.6103Z" fill="#ECB869"/>
<path d="M293.105 44.3669H284.505L282.897 54.0155H261.197L275.182 1.39457H302.508L316.653 54.0155H294.712L293.105 44.3669ZM291.979 37.1508L288.925 18.2592L285.71 37.1508H291.979Z" fill="#ECB869"/>
<path d="M324.164 54.0155V20.6105H310.661V1.39457H358V20.6105H344.498V54.0155H324.164Z" fill="#ECB869"/>
</svg>
