<svg width="64" height="64" viewBox="0 0 64 64" fill="none" xmlns="http://www.w3.org/2000/svg">
<rect x="1" y="1" width="62" height="62" rx="15" fill="#ECB869"/>
<rect x="1" y="1" width="62" height="62" rx="15" stroke="#939C71" stroke-width="2"/>
<path fill-rule="evenodd" clip-rule="evenodd" d="M32.0001 50.3334C42.1253 50.3334 50.3334 42.1253 50.3334 32.0001C50.3334 21.8749 42.1253 13.6667 32.0001 13.6667C21.8749 13.6667 13.6667 21.8749 13.6667 32.0001C13.6667 42.1253 21.8749 50.3334 32.0001 50.3334ZM28.5714 35.3H31.0833C31.5155 35.3 31.7315 35.3 31.8658 35.4342C32 35.5685 32 35.7845 32 36.2167V44.3381C32 45.971 32 46.7874 32.3597 46.8667C32.7195 46.9459 33.0625 46.205 33.7485 44.7232L38.756 33.9071C39.8408 31.5639 40.3832 30.3923 39.8425 29.5462C39.3018 28.7 38.0107 28.7 35.4286 28.7H32.9167C32.4845 28.7 32.2685 28.7 32.1342 28.5658C32 28.4315 32 28.2155 32 27.7833V19.6619C32 18.029 32 17.2126 31.6403 17.1333C31.2805 17.0541 30.9375 17.795 30.2515 19.2768L25.244 30.0929C24.1592 32.4361 23.6168 33.6077 24.1575 34.4538C24.6982 35.3 25.9893 35.3 28.5714 35.3Z" fill="#41311B"/>
</svg>
