<svg width="64" height="64" viewBox="0 0 64 64" fill="none" xmlns="http://www.w3.org/2000/svg">
<rect x="1" y="1" width="62" height="62" rx="15" fill="#ECB869"/>
<rect x="1" y="1" width="62" height="62" rx="15" stroke="#939C71" stroke-width="2"/>
<path d="M20.35 21.7166C21.5671 22.1461 21.9853 23.2672 22.2662 24.4349C22.8762 27.2515 22.4315 30.0046 21.7342 32.6901C21.307 34.3657 20.0752 35.5868 18.2408 35.4813C16.5669 35.3979 15.6216 34.3023 15.1092 32.6773C14.2938 30.0451 14.372 27.3397 14.6567 24.6791C14.9614 21.3995 17.3393 20.1727 20.35 21.7166Z" fill="#41311B"/>
<path d="M22.8157 15.1022C24.267 11.9315 28.3682 11.4984 30.4665 13.9637C32.427 16.361 31.9749 22.2546 29.6242 24.3524C27.3876 26.3349 24.4734 25.7534 23.3822 22.9851C22.4062 20.3308 22.2778 17.5806 22.8157 15.1022Z" fill="#41311B"/>
<path d="M40.5645 25.4671C40.5424 25.6277 40.4743 25.7656 40.3603 25.8808C37.3434 27.7068 35.9658 27.2552 34.7583 24.1436C33.8992 21.9472 33.911 19.7235 34.1521 17.4987C34.4368 14.8381 36.6752 13.1994 39.4737 13.5523C42.2262 13.8824 42.4657 15.9443 42.3846 18.0766C42.2598 20.6447 42.0204 23.2134 40.5645 25.4671Z" fill="#41311B"/>
<path d="M40.5492 31.6333C40.5168 29.7308 41.6534 27.777 40.3603 25.8808C40.4743 25.7656 40.4964 25.605 40.5645 25.4671C42.5845 26.0073 43.146 23.7117 44.9322 23.3361C47.2909 22.8429 48.4858 23.433 49.1605 25.424C50.2069 28.3989 49.9698 31.426 48.9752 34.2506C48.0708 36.7767 45.5958 36.9265 42.8206 36.6423C44.7397 39.9338 45.2141 43.1408 44.8181 46.4896C44.2685 51.1917 40.7041 53.5477 36.3628 51.8041C32.9635 50.4686 29.706 50.0034 26.0417 50.7093C21.1638 51.6735 18.9502 49.0941 19.8432 44.2757C21.0266 37.9428 25.3354 33.1533 28.4265 27.8196C29.9947 25.1068 34.6974 25.7711 37.3007 28.3714C38.3147 29.4438 38.8038 31.0002 40.2972 31.6805C40.3443 31.9324 40.4147 32.2529 40.7574 32.022C40.6888 32.0453 40.5957 31.7707 40.5492 31.6333Z" fill="#41311B"/>
<path d="M40.5492 31.6333C40.5957 31.7707 40.689 32.0456 40.6663 32.0916C40.2777 32.2998 40.2533 32.002 40.2062 31.75C40.2975 31.6808 40.4119 31.6799 40.5492 31.6333Z" fill="#41311B"/>
</svg>
