<svg width="64" height="64" viewBox="0 0 64 64" fill="none" xmlns="http://www.w3.org/2000/svg">
<rect x="1" y="1" width="62" height="62" rx="15" fill="#ECB869"/>
<rect x="1" y="1" width="62" height="62" rx="15" stroke="#939C71" stroke-width="2"/>
<path d="M40.25 47.5833H23.75" stroke="#41311B" stroke-width="3.66667" stroke-linecap="round"/>
<path d="M33.8333 43.9167C33.8333 44.9293 33.0125 45.7501 32 45.7501C30.9875 45.7501 30.1667 44.9293 30.1667 43.9167H33.8333ZM30.1667 43.9167V39.3334H33.8333V43.9167H30.1667Z" fill="#41311B"/>
<path d="M29.25 27.4167H34.75" stroke="#41311B" stroke-width="3.66667" stroke-linecap="round"/>
<path d="M20.0834 36.5834C20.0834 36.5834 16.4167 33.8334 16.4167 29.2501C16.4167 27.8469 16.4167 26.6156 16.4167 25.5824C16.4167 23.5574 18.0584 21.9167 20.0834 21.9167V21.9167C22.1085 21.9167 23.7501 23.5584 23.7501 25.5834V27.4167" stroke="#41311B" stroke-width="3.66667" stroke-linecap="round"/>
<path d="M43.9166 36.5834C43.9166 36.5834 47.5833 33.8334 47.5833 29.2501C47.5833 27.8469 47.5833 26.6156 47.5833 25.5824C47.5833 23.5574 45.9416 21.9167 43.9166 21.9167V21.9167C41.8915 21.9167 40.2499 23.5584 40.2499 25.5834V27.4167" stroke="#41311B" stroke-width="3.66667" stroke-linecap="round"/>
<path d="M40.25 30.8252V23.7499C40.25 21.7249 38.6084 20.0833 36.5833 20.0833H27.4167C25.3916 20.0833 23.75 21.7249 23.75 23.7499V30.8252C23.75 33.2772 24.9754 35.5669 27.0155 36.9269L30.983 39.572C31.5989 39.9825 32.4011 39.9825 33.017 39.572L36.9845 36.9269C39.0246 35.5669 40.25 33.2772 40.25 30.8252Z" stroke="#41311B" stroke-width="3.66667"/>
</svg>
