<svg width="64" height="64" viewBox="0 0 64 64" fill="none" xmlns="http://www.w3.org/2000/svg">
<rect x="1" y="1" width="62" height="62" rx="15" fill="#ECB869"/>
<rect x="1" y="1" width="62" height="62" rx="15" stroke="#939C71" stroke-width="2"/>
<path fill-rule="evenodd" clip-rule="evenodd" d="M30.1667 15.6011V26.3959C27.3496 26.0744 24.7553 25.0208 22.7852 23.4201C21.6907 22.5308 20.8378 21.5152 20.2357 20.431C22.8262 17.7971 26.2945 16.0291 30.1667 15.6011ZM33.8333 15.6011V26.3959C36.6504 26.0744 39.2447 25.0208 41.2148 23.4201C42.3093 22.5308 43.1622 21.5152 43.7643 20.431C41.1738 17.7971 37.7055 16.0291 33.8333 15.6011ZM46.1474 23.5043C45.4212 24.513 44.541 25.4419 43.527 26.2658C40.865 28.4287 37.4407 29.747 33.8333 30.0818L33.8333 33.918C35.3267 34.0566 36.7955 34.3643 38.1975 34.8361C40.17 35.5 41.9834 36.4799 43.527 37.734C44.5345 38.5526 45.4168 39.4799 46.1479 40.4955C47.6412 38.014 48.5 35.1075 48.5 32.0004C48.5 28.8929 47.641 25.986 46.1474 23.5043ZM43.7645 43.5696C43.1579 42.4781 42.3003 41.4617 41.2148 40.5798C40.0346 39.6208 38.6143 38.8451 37.0279 38.3113C36.0053 37.9671 34.9315 37.7295 33.8333 37.6041V48.3997C37.7056 47.9716 41.174 46.2036 43.7645 43.5696ZM30.1667 48.3997V37.6041C29.0685 37.7295 27.9947 37.9671 26.9721 38.3113C25.3857 38.8451 23.9654 39.6208 22.7852 40.5798C21.6997 41.4617 20.8421 42.4781 20.2355 43.5696C22.826 46.2036 26.2944 47.9716 30.1667 48.3997ZM17.8521 40.4955C18.5832 39.4799 19.4655 38.5526 20.473 37.734C22.0166 36.4799 23.83 35.5 25.8025 34.8361C27.2045 34.3643 28.6733 34.0566 30.1667 33.918V30.0818C26.5593 29.747 23.135 28.4287 20.473 26.2658C19.459 25.4419 18.5788 24.513 17.8526 23.5043C16.359 25.986 15.5 28.8929 15.5 32.0004C15.5 35.1075 16.3588 38.014 17.8521 40.4955Z" fill="#41311B"/>
</svg>
